<svg width="1863" height="959" viewBox="0 0 1863 959" fill="none" xmlns="http://www.w3.org/2000/svg">
<g opacity="0.6" clip-path="url(#clip0_2686_520)">
<path d="M72.5498 814C32.4434 814 0 846.443 0 886.55C0 926.557 32.4434 959.1 72.5498 959.1C112.557 959.1 145.1 926.656 145.1 886.55C145 846.443 112.557 814 72.5498 814ZM72.5498 954.422C35.0309 954.422 4.67742 924.069 4.67742 886.55C4.67742 849.031 35.0309 818.677 72.5498 818.677C110.069 818.677 140.422 849.031 140.422 886.55C140.422 923.969 109.969 954.422 72.5498 954.422Z" fill="white"/>
<path d="M72.5493 829.625C41.2006 829.625 15.7236 855.102 15.7236 886.451C15.7236 917.799 41.2006 943.276 72.5493 943.276C103.898 943.276 129.375 917.899 129.375 886.55C129.375 855.102 103.898 829.625 72.5493 829.625ZM72.5493 934.618C45.9776 934.618 24.3818 913.022 24.3818 886.451C24.3818 859.879 45.9776 838.283 72.5493 838.283C99.121 838.283 120.717 859.879 120.717 886.451C120.717 913.022 99.121 934.618 72.5493 934.618Z" fill="white"/>
<path d="M72.5503 854.604C54.9353 854.604 40.6045 868.934 40.6045 886.549C40.6045 904.164 54.8358 918.495 72.5503 918.495C90.1652 918.495 104.496 904.164 104.496 886.549C104.397 868.934 90.1652 854.604 72.5503 854.604ZM72.5503 903.667C63.0959 903.667 55.4329 896.004 55.4329 886.549C55.4329 877.095 63.0959 869.432 72.5503 869.432C82.0046 869.432 89.6676 877.095 89.6676 886.549C89.6676 896.004 82.0046 903.667 72.5503 903.667Z" fill="white"/>
</g>
<g opacity="0.6">
<path d="M1831.3 512.921L1831.3 501L1863 501L1863 532.699L1851.17 532.699L1851.17 512.921L1831.3 512.921Z" fill="white"/>
<path d="M1809.9 534.326L1809.9 522.495L1841.6 522.495L1841.6 554.104L1829.68 554.104L1829.68 534.326L1809.9 534.326Z" fill="white"/>
<path d="M1788.49 555.818L1788.49 543.897L1820.1 543.897L1820.1 575.596L1808.27 575.596L1808.27 555.818L1788.49 555.818Z" fill="white"/>
<path d="M1767 577.222L1767 565.301L1798.7 565.301L1798.7 597L1786.78 597L1786.78 577.222L1767 577.222Z" fill="white"/>
</g>
<g clip-path="url(#clip1_2686_520)">
<path d="M1181.08 30.8602C1181.08 32.0247 1180.21 32.8981 1179.04 32.8981C1177.87 32.8981 1177 32.0247 1177 30.8602C1177 29.6956 1177.87 28.8223 1179.04 28.8223C1180.21 28.8223 1181.08 29.7927 1181.08 30.8602Z" fill="white"/>
<path d="M1198.47 30.8602C1198.47 32.0247 1197.6 32.8981 1196.43 32.8981C1195.26 32.8981 1194.39 32.0247 1194.39 30.8602C1194.39 29.6956 1195.26 28.8223 1196.43 28.8223C1197.5 28.8223 1198.47 29.7927 1198.47 30.8602Z" fill="white"/>
<path d="M1215.76 30.8602C1215.76 32.0247 1214.89 32.8981 1213.72 32.8981C1212.56 32.8981 1211.68 32.0247 1211.68 30.8602C1211.68 29.6956 1212.56 28.8223 1213.72 28.8223C1214.89 28.8223 1215.76 29.7927 1215.76 30.8602Z" fill="white"/>
<path d="M1233.15 30.8602C1233.15 32.0247 1232.28 32.8981 1231.11 32.8981C1229.94 32.8981 1229.07 32.0247 1229.07 30.8602C1229.07 29.6956 1229.94 28.8223 1231.11 28.8223C1232.28 28.8223 1233.15 29.7927 1233.15 30.8602Z" fill="white"/>
<path d="M1250.54 30.8602C1250.54 32.0247 1249.67 32.8981 1248.5 32.8981C1247.33 32.8981 1246.46 32.0247 1246.46 30.8602C1246.46 29.6956 1247.33 28.8223 1248.5 28.8223C1249.57 28.8223 1250.54 29.7927 1250.54 30.8602Z" fill="white"/>
<path d="M1267.93 30.8602C1267.93 32.0247 1267.06 32.8981 1265.89 32.8981C1264.72 32.8981 1263.85 32.0247 1263.85 30.8602C1263.85 29.6956 1264.72 28.8223 1265.89 28.8223C1267.06 28.8223 1267.93 29.7927 1267.93 30.8602Z" fill="white"/>
<path d="M1285.22 30.8602C1285.22 32.0247 1284.35 32.8981 1283.18 32.8981C1282.02 32.8981 1281.14 32.0247 1281.14 30.8602C1281.14 29.6956 1282.02 28.8223 1283.18 28.8223C1284.35 28.8223 1285.22 29.7927 1285.22 30.8602Z" fill="white"/>
<path d="M1302.61 30.8602C1302.61 32.0247 1301.74 32.8981 1300.57 32.8981C1299.4 32.8981 1298.53 32.0247 1298.53 30.8602C1298.53 29.6956 1299.4 28.8223 1300.57 28.8223C1301.74 28.8223 1302.61 29.7927 1302.61 30.8602Z" fill="white"/>
<path d="M1320 30.8602C1320 32.0247 1319.13 32.8981 1317.96 32.8981C1316.79 32.8981 1315.92 32.0247 1315.92 30.8602C1315.92 29.6956 1316.79 28.8223 1317.96 28.8223C1319.03 28.8223 1320 29.7927 1320 30.8602Z" fill="white"/>
<path d="M1181.08 45.3191C1181.08 46.4837 1180.21 47.357 1179.04 47.357C1177.87 47.357 1177 46.4837 1177 45.3191C1177 44.1546 1177.87 43.2812 1179.04 43.2812C1180.21 43.2812 1181.08 44.1546 1181.08 45.3191Z" fill="white"/>
<path d="M1198.47 45.3191C1198.47 46.4837 1197.6 47.357 1196.43 47.357C1195.26 47.357 1194.39 46.4837 1194.39 45.3191C1194.39 44.1546 1195.26 43.2812 1196.43 43.2812C1197.5 43.2812 1198.47 44.1546 1198.47 45.3191Z" fill="white"/>
<path d="M1215.76 45.3191C1215.76 46.4837 1214.89 47.357 1213.72 47.357C1212.56 47.357 1211.68 46.4837 1211.68 45.3191C1211.68 44.1546 1212.56 43.2812 1213.72 43.2812C1214.89 43.2812 1215.76 44.1546 1215.76 45.3191Z" fill="white"/>
<path d="M1233.15 45.3191C1233.15 46.4837 1232.28 47.357 1231.11 47.357C1229.94 47.357 1229.07 46.4837 1229.07 45.3191C1229.07 44.1546 1229.94 43.2812 1231.11 43.2812C1232.28 43.2812 1233.15 44.1546 1233.15 45.3191Z" fill="white"/>
<path d="M1250.54 45.3191C1250.54 46.4837 1249.67 47.357 1248.5 47.357C1247.33 47.357 1246.46 46.4837 1246.46 45.3191C1246.46 44.1546 1247.33 43.2812 1248.5 43.2812C1249.57 43.2812 1250.54 44.1546 1250.54 45.3191Z" fill="white"/>
<path d="M1267.93 45.3191C1267.93 46.4837 1267.06 47.357 1265.89 47.357C1264.72 47.357 1263.85 46.4837 1263.85 45.3191C1263.85 44.1546 1264.72 43.2812 1265.89 43.2812C1267.06 43.2812 1267.93 44.1546 1267.93 45.3191Z" fill="white"/>
<path d="M1285.22 45.3191C1285.22 46.4837 1284.35 47.357 1283.18 47.357C1282.02 47.357 1281.14 46.4837 1281.14 45.3191C1281.14 44.1546 1282.02 43.2812 1283.18 43.2812C1284.35 43.2812 1285.22 44.1546 1285.22 45.3191Z" fill="white"/>
<path d="M1302.61 45.3191C1302.61 46.4837 1301.74 47.357 1300.57 47.357C1299.4 47.357 1298.53 46.4837 1298.53 45.3191C1298.53 44.1546 1299.4 43.2812 1300.57 43.2812C1301.74 43.2812 1302.61 44.1546 1302.61 45.3191Z" fill="white"/>
<path d="M1320 45.3191C1320 46.4837 1319.13 47.357 1317.96 47.357C1316.79 47.357 1315.92 46.4837 1315.92 45.3191C1315.92 44.1546 1316.79 43.2812 1317.96 43.2812C1319.03 43.2812 1320 44.1546 1320 45.3191Z" fill="white"/>
<path d="M1181.08 2.03789C1181.08 3.2024 1180.21 4.07579 1179.04 4.07579C1177.87 4.07579 1177 3.2024 1177 2.03789C1177 0.873382 1177.87 0 1179.04 0C1180.21 0 1181.08 0.873382 1181.08 2.03789Z" fill="white"/>
<path d="M1198.47 2.03789C1198.47 3.2024 1197.6 4.07579 1196.43 4.07579C1195.26 4.07579 1194.39 3.2024 1194.39 2.03789C1194.39 0.873382 1195.26 0 1196.43 0C1197.5 0 1198.47 0.873382 1198.47 2.03789Z" fill="white"/>
<path d="M1215.76 2.03789C1215.76 3.2024 1214.89 4.07579 1213.72 4.07579C1212.56 4.07579 1211.68 3.2024 1211.68 2.03789C1211.68 0.873382 1212.65 0 1213.72 0C1214.89 0 1215.76 0.873382 1215.76 2.03789Z" fill="white"/>
<path d="M1233.15 2.03789C1233.15 3.2024 1232.28 4.07579 1231.11 4.07579C1229.94 4.07579 1229.07 3.2024 1229.07 2.03789C1229.07 0.873382 1230.04 0 1231.11 0C1232.18 0 1233.15 0.873382 1233.15 2.03789Z" fill="white"/>
<path d="M1250.54 2.03789C1250.54 3.2024 1249.67 4.07579 1248.5 4.07579C1247.33 4.07579 1246.46 3.2024 1246.46 2.03789C1246.46 0.873382 1247.33 0 1248.5 0C1249.57 0 1250.54 0.873382 1250.54 2.03789Z" fill="white"/>
<path d="M1267.93 2.03789C1267.93 3.2024 1267.06 4.07579 1265.89 4.07579C1264.72 4.07579 1263.85 3.2024 1263.85 2.03789C1263.85 0.873382 1264.72 0 1265.89 0C1267.06 0 1267.93 0.873382 1267.93 2.03789Z" fill="white"/>
<path d="M1285.22 2.03789C1285.22 3.2024 1284.35 4.07579 1283.18 4.07579C1282.02 4.07579 1281.14 3.2024 1281.14 2.03789C1281.14 0.873382 1282.02 0 1283.18 0C1284.35 0 1285.22 0.873382 1285.22 2.03789Z" fill="white"/>
<path d="M1302.61 2.03789C1302.61 3.2024 1301.74 4.07579 1300.57 4.07579C1299.4 4.07579 1298.53 3.2024 1298.53 2.03789C1298.53 0.873382 1299.4 0 1300.57 0C1301.74 0 1302.61 0.873382 1302.61 2.03789Z" fill="white"/>
<path d="M1320 2.03789C1320 3.2024 1319.13 4.07579 1317.96 4.07579C1316.79 4.07579 1315.92 3.2024 1315.92 2.03789C1315.92 0.873382 1316.79 0 1317.96 0C1319.03 0 1320 0.873382 1320 2.03789Z" fill="white"/>
<path d="M1181.08 16.4969C1181.08 17.6614 1180.21 18.5348 1179.04 18.5348C1177.87 18.5348 1177 17.5643 1177 16.4969C1177 15.3324 1177.87 14.459 1179.04 14.459C1180.21 14.459 1181.08 15.3324 1181.08 16.4969Z" fill="white"/>
<path d="M1198.47 16.4969C1198.47 17.6614 1197.6 18.5348 1196.43 18.5348C1195.26 18.5348 1194.39 17.6614 1194.39 16.4969C1194.39 15.3324 1195.26 14.459 1196.43 14.459C1197.5 14.459 1198.47 15.3324 1198.47 16.4969Z" fill="white"/>
<path d="M1215.76 16.4969C1215.76 17.6614 1214.89 18.5348 1213.72 18.5348C1212.56 18.5348 1211.68 17.6614 1211.68 16.4969C1211.68 15.3324 1212.56 14.459 1213.72 14.459C1214.89 14.459 1215.76 15.3324 1215.76 16.4969Z" fill="white"/>
<path d="M1233.15 16.4969C1233.15 17.6614 1232.28 18.5348 1231.11 18.5348C1229.94 18.5348 1229.07 17.6614 1229.07 16.4969C1229.07 15.3324 1229.94 14.459 1231.11 14.459C1232.28 14.459 1233.15 15.3324 1233.15 16.4969Z" fill="white"/>
<path d="M1250.54 16.4969C1250.54 17.6614 1249.67 18.5348 1248.5 18.5348C1247.33 18.5348 1246.46 17.6614 1246.46 16.4969C1246.46 15.3324 1247.33 14.459 1248.5 14.459C1249.57 14.459 1250.54 15.3324 1250.54 16.4969Z" fill="white"/>
<path d="M1267.93 16.4969C1267.93 17.6614 1267.06 18.5348 1265.89 18.5348C1264.72 18.5348 1263.85 17.6614 1263.85 16.4969C1263.85 15.3324 1264.72 14.459 1265.89 14.459C1267.06 14.459 1267.93 15.3324 1267.93 16.4969Z" fill="white"/>
<path d="M1285.22 16.4969C1285.22 17.6614 1284.35 18.5348 1283.18 18.5348C1282.02 18.5348 1281.14 17.6614 1281.14 16.4969C1281.14 15.3324 1282.02 14.459 1283.18 14.459C1284.35 14.459 1285.22 15.3324 1285.22 16.4969Z" fill="white"/>
<path d="M1302.61 16.4969C1302.61 17.6614 1301.74 18.5348 1300.57 18.5348C1299.4 18.5348 1298.53 17.6614 1298.53 16.4969C1298.53 15.3324 1299.4 14.459 1300.57 14.459C1301.74 14.459 1302.61 15.3324 1302.61 16.4969Z" fill="white"/>
<path d="M1320 16.4969C1320 17.6614 1319.13 18.5348 1317.96 18.5348C1316.79 18.5348 1315.92 17.6614 1315.92 16.4969C1315.92 15.3324 1316.79 14.459 1317.96 14.459C1319.03 14.459 1320 15.3324 1320 16.4969Z" fill="white"/>
<path d="M1181.08 59.6805C1181.08 60.845 1180.21 61.7184 1179.04 61.7184C1177.87 61.7184 1177 60.845 1177 59.6805C1177 58.516 1177.87 57.6426 1179.04 57.6426C1180.21 57.6426 1181.08 58.613 1181.08 59.6805Z" fill="white"/>
<path d="M1198.47 59.6805C1198.47 60.845 1197.6 61.7184 1196.43 61.7184C1195.26 61.7184 1194.39 60.845 1194.39 59.6805C1194.39 58.516 1195.26 57.6426 1196.43 57.6426C1197.5 57.6426 1198.47 58.613 1198.47 59.6805Z" fill="white"/>
<path d="M1215.76 59.6805C1215.76 60.845 1214.89 61.7184 1213.72 61.7184C1212.56 61.7184 1211.68 60.845 1211.68 59.6805C1211.68 58.516 1212.56 57.6426 1213.72 57.6426C1214.89 57.6426 1215.76 58.613 1215.76 59.6805Z" fill="white"/>
<path d="M1233.15 59.6805C1233.15 60.845 1232.28 61.7184 1231.11 61.7184C1229.94 61.7184 1229.07 60.845 1229.07 59.6805C1229.07 58.516 1229.94 57.6426 1231.11 57.6426C1232.28 57.6426 1233.15 58.613 1233.15 59.6805Z" fill="white"/>
<path d="M1250.54 59.6805C1250.54 60.845 1249.67 61.7184 1248.5 61.7184C1247.33 61.7184 1246.46 60.845 1246.46 59.6805C1246.46 58.516 1247.33 57.6426 1248.5 57.6426C1249.57 57.6426 1250.54 58.613 1250.54 59.6805Z" fill="white"/>
<path d="M1267.93 59.6805C1267.93 60.845 1267.06 61.7184 1265.89 61.7184C1264.72 61.7184 1263.85 60.845 1263.85 59.6805C1263.85 58.516 1264.72 57.6426 1265.89 57.6426C1267.06 57.6426 1267.93 58.613 1267.93 59.6805Z" fill="white"/>
<path d="M1285.22 59.6805C1285.22 60.845 1284.35 61.7184 1283.18 61.7184C1282.02 61.7184 1281.14 60.845 1281.14 59.6805C1281.14 58.516 1282.02 57.6426 1283.18 57.6426C1284.35 57.6426 1285.22 58.613 1285.22 59.6805Z" fill="white"/>
<path d="M1302.61 59.6805C1302.61 60.845 1301.74 61.7184 1300.57 61.7184C1299.4 61.7184 1298.53 60.845 1298.53 59.6805C1298.53 58.516 1299.4 57.6426 1300.57 57.6426C1301.74 57.6426 1302.61 58.613 1302.61 59.6805Z" fill="white"/>
<path d="M1320 59.6805C1320 60.845 1319.13 61.7184 1317.96 61.7184C1316.79 61.7184 1315.92 60.845 1315.92 59.6805C1315.92 58.516 1316.79 57.6426 1317.96 57.6426C1319.03 57.6426 1320 58.613 1320 59.6805Z" fill="white"/>
<path d="M1181.08 74.1395C1181.08 75.304 1180.21 76.1773 1179.04 76.1773C1177.87 76.1773 1177 75.304 1177 74.1395C1177 72.9749 1177.87 72.1016 1179.04 72.1016C1180.21 72.1016 1181.08 72.9749 1181.08 74.1395Z" fill="white"/>
<path d="M1198.47 74.1395C1198.47 75.304 1197.6 76.1773 1196.43 76.1773C1195.26 76.1773 1194.39 75.304 1194.39 74.1395C1194.39 72.9749 1195.26 72.1016 1196.43 72.1016C1197.5 72.1016 1198.47 72.9749 1198.47 74.1395Z" fill="white"/>
<path d="M1215.76 74.1395C1215.76 75.304 1214.89 76.1773 1213.72 76.1773C1212.56 76.1773 1211.68 75.304 1211.68 74.1395C1211.68 72.9749 1212.56 72.1016 1213.72 72.1016C1214.89 72.1016 1215.76 72.9749 1215.76 74.1395Z" fill="white"/>
<path d="M1231.11 76.1773C1232.24 76.1773 1233.15 75.265 1233.15 74.1395C1233.15 73.014 1232.24 72.1016 1231.11 72.1016C1229.98 72.1016 1229.07 73.014 1229.07 74.1395C1229.07 75.265 1229.98 76.1773 1231.11 76.1773Z" fill="white"/>
<path d="M1250.54 74.1395C1250.54 75.304 1249.67 76.1773 1248.5 76.1773C1247.33 76.1773 1246.46 75.304 1246.46 74.1395C1246.46 72.9749 1247.33 72.1016 1248.5 72.1016C1249.57 72.1016 1250.54 72.9749 1250.54 74.1395Z" fill="white"/>
<path d="M1267.93 74.1395C1267.93 75.304 1267.06 76.1773 1265.89 76.1773C1264.72 76.1773 1263.85 75.304 1263.85 74.1395C1263.85 72.9749 1264.72 72.1016 1265.89 72.1016C1267.06 72.1016 1267.93 72.9749 1267.93 74.1395Z" fill="white"/>
<path d="M1285.22 74.1395C1285.22 75.304 1284.35 76.1773 1283.18 76.1773C1282.02 76.1773 1281.14 75.304 1281.14 74.1395C1281.14 72.9749 1282.02 72.1016 1283.18 72.1016C1284.35 72.1016 1285.22 72.9749 1285.22 74.1395Z" fill="white"/>
<path d="M1300.57 76.1773C1301.7 76.1773 1302.61 75.265 1302.61 74.1395C1302.61 73.014 1301.7 72.1016 1300.57 72.1016C1299.44 72.1016 1298.53 73.014 1298.53 74.1395C1298.53 75.265 1299.44 76.1773 1300.57 76.1773Z" fill="white"/>
<path d="M1320 74.1395C1320 75.304 1319.13 76.1773 1317.96 76.1773C1316.79 76.1773 1315.92 75.304 1315.92 74.1395C1315.92 72.9749 1316.79 72.1016 1317.96 72.1016C1319.03 72.1016 1320 72.9749 1320 74.1395Z" fill="white"/>
<path d="M1181.08 88.6004C1181.08 89.7649 1180.21 90.6383 1179.04 90.6383C1177.87 90.6383 1177 89.7649 1177 88.6004C1177 87.4359 1177.87 86.5625 1179.04 86.5625C1180.21 86.5625 1181.08 87.4359 1181.08 88.6004Z" fill="white"/>
<path d="M1198.47 88.6004C1198.47 89.7649 1197.6 90.6383 1196.43 90.6383C1195.26 90.6383 1194.39 89.7649 1194.39 88.6004C1194.39 87.4359 1195.26 86.5625 1196.43 86.5625C1197.5 86.5625 1198.47 87.4359 1198.47 88.6004Z" fill="white"/>
<path d="M1215.76 88.6004C1215.76 89.7649 1214.89 90.6383 1213.72 90.6383C1212.56 90.6383 1211.68 89.7649 1211.68 88.6004C1211.68 87.4359 1212.56 86.5625 1213.72 86.5625C1214.89 86.5625 1215.76 87.4359 1215.76 88.6004Z" fill="white"/>
<path d="M1233.15 88.6004C1233.15 89.7649 1232.28 90.6383 1231.11 90.6383C1229.94 90.6383 1229.07 89.7649 1229.07 88.6004C1229.07 87.4359 1229.94 86.5625 1231.11 86.5625C1232.28 86.5625 1233.15 87.4359 1233.15 88.6004Z" fill="white"/>
<path d="M1250.54 88.6004C1250.54 89.7649 1249.67 90.6383 1248.5 90.6383C1247.33 90.6383 1246.46 89.7649 1246.46 88.6004C1246.46 87.4359 1247.33 86.5625 1248.5 86.5625C1249.57 86.5625 1250.54 87.4359 1250.54 88.6004Z" fill="white"/>
<path d="M1267.93 88.6004C1267.93 89.7649 1267.06 90.6383 1265.89 90.6383C1264.72 90.6383 1263.85 89.7649 1263.85 88.6004C1263.85 87.4359 1264.72 86.5625 1265.89 86.5625C1267.06 86.5625 1267.93 87.4359 1267.93 88.6004Z" fill="white"/>
<path d="M1285.22 88.6004C1285.22 89.7649 1284.35 90.6383 1283.18 90.6383C1282.02 90.6383 1281.14 89.7649 1281.14 88.6004C1281.14 87.4359 1282.02 86.5625 1283.18 86.5625C1284.35 86.5625 1285.22 87.4359 1285.22 88.6004Z" fill="white"/>
<path d="M1302.61 88.6004C1302.61 89.7649 1301.74 90.6383 1300.57 90.6383C1299.4 90.6383 1298.53 89.7649 1298.53 88.6004C1298.53 87.4359 1299.4 86.5625 1300.57 86.5625C1301.74 86.5625 1302.61 87.4359 1302.61 88.6004Z" fill="white"/>
<path d="M1320 88.6004C1320 89.7649 1319.13 90.6383 1317.96 90.6383C1316.79 90.6383 1315.92 89.7649 1315.92 88.6004C1315.92 87.4359 1316.79 86.5625 1317.96 86.5625C1319.03 86.5625 1320 87.4359 1320 88.6004Z" fill="white"/>
<path d="M1181.08 102.962C1181.08 104.126 1180.21 105 1179.04 105C1177.87 105 1177 104.126 1177 102.962C1177 101.797 1177.87 100.924 1179.04 100.924C1180.21 100.924 1181.08 101.894 1181.08 102.962Z" fill="white"/>
<path d="M1198.47 102.962C1198.47 104.126 1197.6 105 1196.43 105C1195.26 105 1194.39 104.126 1194.39 102.962C1194.39 101.797 1195.26 100.924 1196.43 100.924C1197.5 100.924 1198.47 101.894 1198.47 102.962Z" fill="white"/>
<path d="M1215.76 102.962C1215.76 104.126 1214.89 105 1213.72 105C1212.56 105 1211.68 104.126 1211.68 102.962C1211.68 101.797 1212.56 100.924 1213.72 100.924C1214.89 100.924 1215.76 101.894 1215.76 102.962Z" fill="white"/>
<path d="M1233.15 102.962C1233.15 104.126 1232.28 105 1231.11 105C1229.94 105 1229.07 104.126 1229.07 102.962C1229.07 101.797 1229.94 100.924 1231.11 100.924C1232.28 100.924 1233.15 101.894 1233.15 102.962Z" fill="white"/>
<path d="M1250.54 102.962C1250.54 104.126 1249.67 105 1248.5 105C1247.33 105 1246.46 104.126 1246.46 102.962C1246.46 101.797 1247.33 100.924 1248.5 100.924C1249.57 100.924 1250.54 101.894 1250.54 102.962Z" fill="white"/>
<path d="M1267.93 102.962C1267.93 104.126 1267.06 105 1265.89 105C1264.72 105 1263.85 104.126 1263.85 102.962C1263.85 101.797 1264.72 100.924 1265.89 100.924C1267.06 100.924 1267.93 101.894 1267.93 102.962Z" fill="white"/>
<path d="M1285.22 102.962C1285.22 104.126 1284.35 105 1283.18 105C1282.02 105 1281.14 104.126 1281.14 102.962C1281.14 101.797 1282.02 100.924 1283.18 100.924C1284.35 100.924 1285.22 101.894 1285.22 102.962Z" fill="white"/>
<path d="M1302.61 102.962C1302.61 104.126 1301.74 105 1300.57 105C1299.4 105 1298.53 104.126 1298.53 102.962C1298.53 101.797 1299.4 100.924 1300.57 100.924C1301.74 100.924 1302.61 101.894 1302.61 102.962Z" fill="white"/>
<path d="M1320 102.962C1320 104.126 1319.13 105 1317.96 105C1316.79 105 1315.92 104.126 1315.92 102.962C1315.92 101.797 1316.79 100.924 1317.96 100.924C1319.03 100.924 1320 101.894 1320 102.962Z" fill="white"/>
</g>
<path opacity="0.6" d="M170 81.9782C160.638 91.3406 145.384 91.3406 136.022 81.9782C126.659 72.6158 126.659 57.3624 136.022 48L170 81.9782Z" fill="white"/>
<defs>
<clipPath id="clip0_2686_520">
<rect width="145" height="145" fill="white" transform="translate(0 814)"/>
</clipPath>
<clipPath id="clip1_2686_520">
<rect width="143" height="105" fill="white" transform="translate(1177)"/>
</clipPath>
</defs>
</svg>
